<svg width="22" height="22" viewBox="0 0 22 22" fill="none" xmlns="http://www.w3.org/2000/svg">
<g clip-path="url(#clip0_46_501)">
<path d="M5.14116 4.4607L13.9115 2.06676L13.4471 1.12796C13.1432 0.517744 12.402 0.265751 11.7918 0.569625L3.94049 4.4607H5.14116Z" fill="#0077B9"/>
<path d="M16.634 2.13599C16.5253 2.13599 16.4166 2.15081 16.3079 2.18046L14.2475 2.74374L7.95508 4.46076H15.0974H18.2102L17.8248 3.04761C17.6766 2.49668 17.1775 2.13599 16.634 2.13599Z" fill="#0077B9"/>
<path d="M19.4974 5.32544H19.2157H18.8328H18.4499H15.5272H4.78787H3.37967H2.19382H1.97395H1.23773C0.847389 5.32544 0.499046 5.50579 0.271757 5.7899C0.167996 5.92084 0.0889388 6.07154 0.0444694 6.23706C0.0172937 6.34082 0 6.44953 0 6.5607V6.70893V8.11713V20.324C0 21.0059 0.553397 21.5592 1.23526 21.5592H19.4949C20.1768 21.5592 20.7302 21.0059 20.7302 20.324V16.8776H13.4001C12.2414 16.8776 11.3002 15.9363 11.3002 14.7777V13.6462V13.2632V12.8803V12.0304C11.3002 11.4622 11.5274 10.9459 11.8956 10.5679C12.2217 10.2319 12.659 10.0046 13.1481 9.94779C13.2296 9.93793 13.3136 9.93296 13.3976 9.93296H19.7024H20.0853H20.4683H20.7302V6.5607C20.7326 5.87884 20.1792 5.32544 19.4974 5.32544Z" fill="#0077B9"/>
<path d="M21.5973 11.1139C21.4738 11.0003 21.328 10.9138 21.165 10.857C21.0389 10.815 20.9056 10.7903 20.7647 10.7903H20.7326H20.7079H20.325H18.944H13.4001C12.7182 10.7903 12.1648 11.3437 12.1648 12.0255V12.6407V13.0236V13.4065V14.7752C12.1648 15.4571 12.7182 16.0105 13.4001 16.0105H20.7326H20.7647C20.9056 16.0105 21.039 15.9858 21.165 15.9438C21.328 15.8894 21.4738 15.8005 21.5973 15.6868C21.8444 15.462 22 15.1359 22 14.7752V12.0255C22 11.6648 21.8444 11.3387 21.5973 11.1139ZM15.9793 13.6462C15.9793 13.9871 15.7026 14.2638 15.3617 14.2638H14.9516C14.6106 14.2638 14.334 13.9871 14.334 13.6462V13.2361C14.334 13.0384 14.4254 12.863 14.5711 12.7518C14.6774 12.6703 14.8083 12.6184 14.9516 12.6184H15.0553H15.3617C15.7026 12.6184 15.9793 12.8951 15.9793 13.2361V13.6462Z" fill="#0077B9"/>
</g>
<defs>
<clipPath id="clip0_46_501">
<rect width="22" height="22" fill="white"/>
</clipPath>
</defs>
</svg>
